<?xml version="1.0" encoding="iso-8859-1"?>
<!-- Uploaded to: SVG Repo, www.svgrepo.com, Generator: SVG Repo Mixer Tools -->
<svg height="800px" width="800px" version="1.1" id="Layer_1" xmlns="http://www.w3.org/2000/svg" xmlns:xlink="http://www.w3.org/1999/xlink" 
	 viewBox="0 0 512.002 512.002" xml:space="preserve">
<path style="fill:#E2F7F6;" d="M367.596,154.808H144.407c-6.652,0-12.094,5.395-12.094,11.988v121.573
	c0,6.594,5.442,11.989,12.094,11.989h14.987l8.964,191.83c0.308,6.587,6.002,11.976,12.654,11.976H330.99
	c6.653,0,12.347-5.389,12.655-11.976l8.964-191.83h14.986c6.653,0,12.096-5.395,12.096-11.989V166.796
	C379.691,160.203,374.248,154.808,367.596,154.808z"/>
<path style="fill:#FF8163;" d="M307.679,88.211c-14.09,0-25.554,11.362-25.554,25.329v107.692h28.393V116.356h76.663V88.211H307.679
	z"/>
<path style="fill:#AADDE6;" d="M201.485,221.233h28.394v-96.998c0-13.967-11.464-25.329-25.554-25.329h-79.503v28.144h76.663
	L201.485,221.233L201.485,221.233z"/>
<path style="fill:#FFBAC5;" d="M203.56,480.186c-6.463,0-11.783-5.035-12.082-11.434l-7.92-169.504
	c-0.493-10.561-7.729-19.438-18.007-22.091c-5.329-1.375-9.047-6.144-9.047-11.602v-32.333c0-6.62,5.415-11.988,12.095-11.988
	h174.808c6.68,0,12.094,5.368,12.094,11.988v32.333c0,5.458-3.719,10.226-9.046,11.602c-10.28,2.653-17.516,11.532-18.009,22.092
	l-7.92,169.504c-0.299,6.398-5.619,11.433-12.082,11.433L203.56,480.186L203.56,480.186z"/>
<g>
	<path style="fill:#D67C7C;" d="M226.399,248.807c0-4.328-3.509-7.837-7.837-7.837h-6.157c-4.328,0-7.837,3.509-7.837,7.837
		c0,4.328,3.509,7.837,7.837,7.837h6.157C222.89,256.644,226.399,253.135,226.399,248.807z"/>
	<path style="fill:#D67C7C;" d="M251.274,267.344h-6.158c-4.328,0-7.837,3.509-7.837,7.837c0,4.328,3.509,7.837,7.837,7.837h6.158
		c4.328,0,7.837-3.509,7.837-7.837C259.111,270.853,255.602,267.344,251.274,267.344z"/>
	<path style="fill:#D67C7C;" d="M298.335,245.766h-6.158c-4.328,0-7.837,3.509-7.837,7.837s3.509,7.837,7.837,7.837h6.158
		c4.328,0,7.837-3.509,7.837-7.837S302.663,245.766,298.335,245.766z"/>
	<path style="fill:#D67C7C;" d="M288.659,317.697h-6.158c-4.328,0-7.837,3.509-7.837,7.837s3.509,7.837,7.837,7.837h6.158
		c4.328,0,7.837-3.509,7.837-7.837S292.987,317.697,288.659,317.697z"/>
	<path style="fill:#D67C7C;" d="M236.649,339.276h-6.158c-4.328,0-7.837,3.509-7.837,7.837c0,4.328,3.509,7.837,7.837,7.837h6.158
		c4.328,0,7.837-3.509,7.837-7.837C244.486,342.785,240.978,339.276,236.649,339.276z"/>
	<path style="fill:#D67C7C;" d="M271.726,390.915c4.328,0,7.837-3.509,7.837-7.837s-3.509-7.837-7.837-7.837h-6.158
		c-4.328,0-7.837,3.509-7.837,7.837s3.509,7.837,7.837,7.837H271.726z"/>
	<path style="fill:#D67C7C;" d="M229.392,401.617h-6.158c-4.328,0-7.837,3.509-7.837,7.837s3.509,7.837,7.837,7.837h6.158
		c4.328,0,7.837-3.509,7.837-7.837S233.72,401.617,229.392,401.617z"/>
	<path style="fill:#D67C7C;" d="M274.144,431.589h-6.158c-4.328,0-7.837,3.509-7.837,7.837c0,4.328,3.509,7.837,7.837,7.837h6.158
		c4.328,0,7.837-3.509,7.837-7.837C281.981,435.097,278.472,431.589,274.144,431.589z"/>
</g>
<path style="fill:#E84731;" d="M256.002,93.314c-1.429,0-2.798-0.563-3.808-1.565l-37.152-36.857
	c-5.253-5.206-8.146-12.127-8.146-19.49s2.893-14.285,8.146-19.492c5.251-5.207,12.235-8.074,19.662-8.074
	c7.429,0,14.412,2.867,19.665,8.074l1.633,1.618l1.631-1.618c5.253-5.207,12.237-8.074,19.666-8.074
	c7.426,0,14.41,2.867,19.662,8.074s8.147,12.127,8.147,19.492c0,7.362-2.895,14.284-8.147,19.49l-37.152,36.857
	C258.8,92.751,257.431,93.314,256.002,93.314z"/>
<path style="opacity:0.1;enable-background:new    ;" d="M270.998,79.937L233.846,43.08c-5.253-5.206-8.146-12.127-8.146-19.49
	c0-5.585,1.668-10.913,4.763-15.434c-5.816,0.878-11.182,3.553-15.42,7.754c-5.253,5.207-8.146,12.127-8.146,19.492
	c0,7.362,2.893,14.284,8.146,19.49l37.152,36.857c1.009,1.002,2.377,1.565,3.808,1.565c1.429,0,2.798-0.563,3.808-1.565
	l11.583-11.491C271.26,80.151,271.119,80.058,270.998,79.937z"/>
<path d="M387.181,80.375H358.4c-4.328,0-7.837,3.509-7.837,7.837s3.509,7.837,7.837,7.837h20.944v12.471h-68.826
	c-4.328,0-7.837,3.509-7.837,7.837v30.616h-12.72v-33.43c0-9.645,7.947-17.493,17.717-17.493h18.331
	c4.328,0,7.837-3.509,7.837-7.837s-3.509-7.837-7.837-7.837h-18.331c-18.412,0-33.391,14.878-33.391,33.166v33.43h-10.45V98.569
	c0.52-0.383,1.024-0.794,1.491-1.258l37.149-36.854c6.749-6.69,10.467-15.589,10.467-25.057s-3.717-18.366-10.467-25.058
	C295.749,3.674,286.807,0,277.3,0c-7.778,0-15.178,2.458-21.298,7.004C249.882,2.458,242.482,0,234.704,0
	c-9.509,0-18.451,3.674-25.179,10.344c-6.749,6.689-10.466,15.588-10.466,25.058c0,9.469,3.717,18.368,10.464,25.054l37.148,36.854
	c0.467,0.464,0.972,0.877,1.493,1.261v48.403h-10.449v-22.736c0-18.288-14.979-33.166-33.391-33.166h-79.503
	c-4.328,0-7.837,3.509-7.837,7.837v28.144c0,4.328,3.509,7.837,7.837,7.837h68.826v12.084h-49.241
	c-10.99,0-19.93,8.893-19.93,19.825v121.573c0,10.932,8.941,19.826,19.93,19.826h7.508l8.615,184.36
	c0.502,10.723,9.689,19.446,20.482,19.446H330.99c10.793,0,19.982-8.724,20.483-19.447l3.469-74.228
	c0.202-4.324-3.139-7.991-7.463-8.194c-4.337-0.22-7.992,3.139-8.194,7.463l-3.469,74.227c-0.112,2.4-2.368,4.505-4.827,4.505
	H181.012c-2.459,0-4.714-2.105-4.826-4.505l-8.581-183.627h8.525l7.519,160.923c0.495,10.602,9.241,18.905,19.911,18.905h104.883
	c10.668,0,19.414-8.304,19.909-18.904l7.519-160.924h8.526l-3.697,79.097c-0.202,4.324,3.139,7.991,7.463,8.194
	c4.34,0.214,7.991-3.139,8.194-7.463l3.73-79.828h7.507c10.991,0,19.932-8.894,19.932-19.826V166.796
	c0-10.932-8.942-19.825-19.932-19.825h-49.241v-22.779h68.826c4.328,0,7.837-3.509,7.837-7.837V88.211
	C395.018,83.883,391.509,80.375,387.181,80.375z M220.559,49.325c-3.756-3.723-5.825-8.667-5.825-13.924
	c0-5.256,2.069-10.201,5.826-13.926c3.774-3.741,8.797-5.801,14.145-5.801c5.348,0,10.373,2.061,14.148,5.802l1.631,1.618
	c3.054,3.027,7.98,3.027,11.034,0l1.631-1.616c3.776-3.742,8.801-5.803,14.15-5.803c5.347,0,10.371,2.061,14.145,5.802
	c3.758,3.726,5.827,8.671,5.827,13.926c0,5.255-2.069,10.199-5.829,13.927l-35.44,35.158L220.559,49.325z M302.681,162.645v50.752
	h-12.72v-50.752H302.681z M274.288,162.645v50.752h-10.45v-50.752H274.288z M248.165,162.645v50.752h-10.449v-50.752H248.165z
	 M209.322,213.396v-50.752h12.721v50.752H209.322z M201.485,119.213h-68.826v-12.471h71.666c9.77,0,17.717,7.847,17.717,17.493
	v22.736h-12.721V127.05C209.322,122.722,205.813,119.213,201.485,119.213z M144.407,292.521c-2.307,0-4.257-1.902-4.257-4.152
	V166.796c0-2.251,1.95-4.151,4.257-4.151h49.241v50.752h-25.05c-10.99,0-19.931,8.893-19.931,19.825v32.333
	c0,9.03,6.138,16.921,14.925,19.19c4.432,1.144,8.018,4.006,10.118,7.777L144.407,292.521L144.407,292.521z M321.581,292.521
	h-71.849c-4.328,0-7.837,3.509-7.837,7.837c0,4.328,3.509,7.837,7.837,7.837h70.45l-7.486,160.192
	c-0.104,2.221-1.973,3.963-4.254,3.963H203.56c-2.282,0-4.15-1.741-4.255-3.963l-7.486-160.191h24.476
	c4.328,0,7.837-3.509,7.837-7.837s-3.509-7.837-7.837-7.837h-25.873c-2.806-11.119-11.41-19.984-22.914-22.953
	c-1.866-0.482-3.169-2.133-3.169-4.013v-32.334c0-2.289,1.91-4.151,4.258-4.151h174.808c2.348,0,4.257,1.862,4.257,4.151v32.333
	c0,1.882-1.303,3.532-3.168,4.013C332.994,272.537,324.387,281.402,321.581,292.521z M367.596,162.645
	c2.309,0,4.259,1.901,4.259,4.151v121.573c0,2.251-1.951,4.152-4.259,4.152h-29.301c2.101-3.771,5.686-6.633,10.12-7.777
	c8.787-2.268,14.923-10.16,14.923-19.19v-32.333c0-10.932-8.941-19.825-19.93-19.825h-25.052v-50.752L367.596,162.645
	L367.596,162.645z"/>
<g style="opacity:0.1;">
	<path d="M225.27,458.528c-6.463,0-11.783-5.035-12.082-11.434l-7.92-169.504c-0.493-10.561-7.729-19.439-18.007-22.092
		c-5.329-1.375-9.047-6.144-9.047-11.602v-22.664H168.6c-6.68,0-12.095,5.368-12.095,11.988v32.333
		c0,5.457,3.719,10.226,9.047,11.602c10.278,2.653,17.515,11.53,18.007,22.091l7.92,169.504c0.299,6.399,5.62,11.434,12.082,11.434
		h104.883c6.463,0,11.782-5.035,12.082-11.433l0.478-10.224H225.27V458.528z"/>
</g>
</svg>